<svg width="40" height="56" viewBox="0 0 40 56" fill="none" xmlns="http://www.w3.org/2000/svg">
<rect width="13.19" height="32.9435" transform="matrix(0.866325 0.49948 3.18816e-05 1 28.5721 0)" fill="#6E6E6E"/>
<rect width="32.9796" height="32.9435" transform="matrix(0.866325 -0.49948 -3.18816e-05 1 0.00149536 16.4727)" fill="#5A5A5A"/>
<rect width="13.19" height="32.9796" transform="matrix(0.866357 0.499425 -0.866357 0.499425 28.5721 32.9417)" fill="#AAAAAA"/>
<rect width="13.19" height="32.9435" transform="matrix(0.866325 0.49948 3.18816e-05 1 0.000396729 16.4672)" fill="#78909C"/>
<rect width="32.9796" height="32.9435" transform="matrix(0.866325 -0.49948 -3.18816e-05 1 11.4283 23.0559)" fill="#607D8B"/>
<path d="M31.3703 26.6927L29.5816 27.2658L30.9728 28.7545L30.9725 35.8561L35.7427 28.5243L35.7429 20.7354L33.5567 22.9122L31.3703 26.6927Z" fill="white"/>
<path d="M20.2405 33.1096L22.0292 31.6202L20.6379 34.7131L20.6377 41.8147L15.8679 39.9832L15.8681 32.1943L18.0543 31.8502L20.2405 33.1096Z" fill="white"/>
<path fill-rule="evenodd" clip-rule="evenodd" d="M21.2342 34.8275L22.8242 31.1618L23.818 31.2761L27.793 28.9843L28.7867 27.7241L30.3766 29.5564L30.3763 39.8652L29.1837 42.6145L27.7924 45.0202L23.8175 47.312L22.4263 46.5106L21.2338 45.1363L21.2342 34.8275Z" fill="white"/>
<path d="M30.9725 40.2088L33.5563 35.741L33.5564 32.7629L30.9726 36.7725L30.9725 40.2088Z" fill="white"/>
<path d="M20.6375 46.1673L18.0539 44.6789L18.054 41.7008L20.6376 42.731L20.6375 46.1673Z" fill="white"/>
<path fill-rule="evenodd" clip-rule="evenodd" d="M23.2221 17.6457L21.632 22.915L24.2155 30.1306L25.408 29.443L25.4084 16.3852L26.2034 15.9269L26.203 28.9847L27.5942 28.1826L29.9795 18.1023L28.3896 14.6664L23.2221 17.6457Z" fill="white"/>
<path d="M24.2154 30.1306L15.6693 31.3926L14.477 26.353L21.8307 22.8005L24.4142 30.016L24.2154 30.1306Z" fill="white"/>
<path d="M27.5942 28.1826L36.1405 19.59L37.3332 13.1753L29.7807 18.217L27.3955 28.2972L27.5942 28.1826Z" fill="white"/>
<path d="M30.3771 17.1858L34.5508 14.3213L31.7684 12.7184L28.9859 14.3226L30.3771 17.1858Z" fill="white"/>
<path d="M21.2345 22.457L17.0608 24.4052L19.8434 19.5937L22.6259 17.9895L21.2345 22.457Z" fill="white"/>
<rect width="32.9796" height="13.19" transform="matrix(0.866357 -0.499425 0.866357 0.499425 0.000396729 16.4709)" fill="#90A4AE"/>
</svg>
