<svg xmlns="http://www.w3.org/2000/svg" xmlns:svg="http://www.w3.org/2000/svg" id="Layer_1" width="1000" height="324.683" enable-background="new 0 0 659.055 202.068" overflow="visible" version="1.1" viewBox="0 0 1000 324.684" xml:space="preserve" style="overflow:visible"><metadata id="metadata3739"/><defs id="defs3737"><linearGradient id="linearGradient3801"><stop style="stop-color:#20225f;stop-opacity:1" id="stop3803" offset="0"/><stop id="stop3815" offset=".2" style="stop-color:#1a1f61;stop-opacity:1"/><stop id="stop3813" offset=".41" style="stop-color:#172272;stop-opacity:1"/><stop id="stop3811" offset=".595" style="stop-color:#152682;stop-opacity:1"/><stop id="stop3809" offset=".802" style="stop-color:#12288e;stop-opacity:1"/><stop style="stop-color:#0e2c9a;stop-opacity:1" id="stop3805" offset="1"/></linearGradient></defs><path style="fill:#1434cb;fill-opacity:1;stroke:none" id="path3789" d="m 651.18503,0.50000002 c -70.93272,0 -134.32163,36.76584998 -134.32163,104.69357998 0,77.90028 112.42264,83.28082 112.42264,122.41576 0,16.47806 -18.88384,31.22851 -51.13668,31.22851 -45.77308,0 -79.98403,-20.61081 -79.98403,-20.61081 l -14.63836,68.54658 c 0,0 39.41037,17.40989 91.73375,17.40989 77.55217,0 138.57651,-38.57104 138.57651,-107.66029 0,-82.3157 -112.89106,-87.53633 -112.89106,-123.86008 0,-12.9082 15.50201,-27.05169 47.66251,-27.05169 36.28682,0 65.89216,14.98968 65.89216,14.98968 l 14.32608,-66.20444 c 0,0 -32.21317,-13.89668998 -77.64189,-13.89668998 z M 2.2175605,5.49657 0.49999253,15.48969 c 0,0 29.84159547,5.46149 56.71878047,16.35593 34.606624,12.4927 37.071853,19.7653 42.900167,42.35367 l 63.51098,244.83152 85.13673,0 131.15974,-313.53424 -84.94155,0 L 210.7069,218.67018 176.3165,37.97422 C 173.1626,17.29371 157.18709,5.49657 137.63219,5.49657 l -135.4146295,0 z m 411.8650095,0 -66.63383,313.53424 80.99895,0 66.39962,-313.53424 -80.76474,0 z m 451.75943,0 c -19.53181,0 -29.88045,10.45695 -37.47421,28.73022 l -118.66834,284.80402 84.94155,0 16.434,-47.46734 103.48348,0 9.99312,47.46734 74.94843,0 -65.3847,-313.53424 -68.27333,0 z m 11.04709,84.70733 25.17799,117.65341 -67.45359,0 42.2756,-117.65341 z"/></svg>