<svg width="145" height="57" viewBox="0 0 145 57" fill="none" xmlns="http://www.w3.org/2000/svg">
<path d="M2.12305 55L4.23397 48.6896C6.34488 42.3792 10.684 29.7584 14.9058 25.5514C19.1277 21.3445 23.4668 25.5514 27.6886 22.3962C32.0277 19.241 36.2496 8.72369 40.4714 4.51675C44.8105 0.309813 49.0323 2.41328 53.2542 3.46501C57.5933 4.51675 61.8151 4.51675 66.037 9.77542C70.3761 15.0341 74.5979 25.5514 78.937 35.017C83.1589 44.4827 87.3807 52.8965 91.7198 47.6379C95.9416 42.3792 100.163 23.448 104.503 21.3445C108.724 19.241 112.946 33.9653 117.285 38.1722C121.507 42.3792 125.846 36.0688 130.068 35.017C134.29 33.9653 138.629 38.1722 140.74 40.2757L142.851 42.3792" stroke="url(#paint0_linear)" stroke-width="3" stroke-linecap="round"/>
<defs>
<linearGradient id="paint0_linear" x1="138.911" y1="41.5254" x2="3.79434" y2="42.7602" gradientUnits="userSpaceOnUse">
<stop stop-color="#FF6262"/>
<stop offset="1" stop-color="#FF6262" stop-opacity="0"/>
</linearGradient>
</defs>
</svg>
