<svg width="137" height="44" viewBox="0 0 137 44" fill="none" xmlns="http://www.w3.org/2000/svg">
<path d="M2 2L3.995 6.76257C5.99 11.5251 10.0908 21.0503 14.0808 24.2253C18.0708 27.4004 22.1717 24.2253 26.1617 26.6066C30.2625 28.9879 34.2525 36.9255 38.2425 40.1006C42.3433 43.2756 46.3333 41.6881 50.3233 40.8943C54.4242 40.1006 58.4142 40.1006 62.4042 36.1318C66.505 32.1629 70.495 24.2253 74.5958 17.0815C78.5858 9.93762 82.5758 3.58752 86.6767 7.55633C90.6667 11.5251 94.6567 25.8129 98.7575 27.4004C102.747 28.9879 106.738 17.8752 110.838 14.7002C114.828 11.5251 118.929 16.2877 122.919 17.0815C126.909 17.8752 131.01 14.7002 133.005 13.1127L135 11.5251" stroke="url(#paint0_linear)" stroke-width="3" stroke-linecap="round"/>
<defs>
<linearGradient id="paint0_linear" x1="131.276" y1="12.1695" x2="3.58557" y2="10.7082" gradientUnits="userSpaceOnUse">
<stop stop-color="#1BDC97"/>
<stop offset="1" stop-color="#1BDC97" stop-opacity="0"/>
</linearGradient>
</defs>
</svg>
