<svg width="422" height="521" viewBox="0 0 422 521" fill="none" xmlns="http://www.w3.org/2000/svg">
<mask id="mask0" mask-type="alpha" maskUnits="userSpaceOnUse" x="0" y="-2" width="422" height="523">
<rect y="-2" width="422" height="523" fill="url(#paint0_radial)"/>
</mask>
<g mask="url(#mask0)">
<g opacity="0.04">
<path fill-rule="evenodd" clip-rule="evenodd" d="M4.21053 249.424C7.51158 285.034 52.032 285.008 55.3222 249.424C43.9215 248.194 34.2807 239.737 29.7663 228.012C25.252 239.737 15.6112 248.194 4.21053 249.424ZM26.9026 282.74C25.908 295.631 17.1525 306.882 6.29841 309.239C-8.3705 312.815 -22.9082 299.962 -24.209 282.74C-12.8083 281.51 -3.16752 273.053 1.34683 261.328C5.82839 273.142 15.8955 281.651 26.9026 282.74ZM55.3222 316.057C54.0105 331.229 43.0471 343.12 29.7663 343.12C16.4856 343.12 5.52221 331.229 4.21053 316.057C15.2177 314.968 25.2848 306.46 29.7663 294.645C34.2479 306.46 44.315 314.968 55.3222 316.057ZM83.7417 282.74C82.43 298.86 69.8488 311.277 55.8467 309.675C43.9105 308.612 33.6794 296.72 32.6301 282.74C43.6372 281.651 53.7043 273.142 58.1859 261.328C62.7002 273.053 72.341 281.51 83.7417 282.74Z" fill="#44486D"/>
<path fill-rule="evenodd" clip-rule="evenodd" d="M116.468 249.424C119.769 285.034 164.29 285.008 167.58 249.424C156.179 248.194 146.539 239.737 142.024 228.012C137.51 239.737 127.869 248.194 116.468 249.424ZM139.16 282.74C138.166 295.631 129.41 306.882 118.556 309.239C103.887 312.815 89.3496 299.962 88.0488 282.74C99.4495 281.51 109.09 273.053 113.605 261.328C118.086 273.142 128.153 281.651 139.16 282.74ZM167.58 316.057C166.268 331.229 155.305 343.12 142.024 343.12C128.743 343.12 117.78 331.229 116.468 316.057C127.475 314.968 137.543 306.46 142.024 294.645C146.506 306.46 156.573 314.968 167.58 316.057ZM195.999 282.74C194.688 298.86 182.107 311.277 168.105 309.675C156.168 308.612 145.937 296.72 144.888 282.74C155.895 281.651 165.962 273.142 170.444 261.328C174.958 273.053 184.599 281.51 195.999 282.74Z" fill="#44486D"/>
<path fill-rule="evenodd" clip-rule="evenodd" d="M60.3394 318.19C63.6405 353.8 108.161 353.774 111.451 318.19C100.05 316.959 90.4096 308.502 85.8953 296.777C81.3809 308.502 71.7401 316.959 60.3394 318.19ZM83.0316 351.506C82.0369 364.397 73.2814 375.647 62.4273 378.005C47.7584 381.58 33.2207 368.728 31.9199 351.506C43.3206 350.276 52.9614 341.818 57.4757 330.094C61.9573 341.908 72.0244 350.417 83.0316 351.506ZM111.451 384.823C110.139 399.995 99.176 411.886 85.8953 411.886C72.6145 411.886 61.6511 399.995 60.3394 384.823C71.3466 383.734 81.4137 375.225 85.8953 363.411C90.3768 375.225 100.444 383.734 111.451 384.823ZM139.871 351.506C138.559 367.626 125.978 380.042 111.976 378.441C100.039 377.377 89.8083 365.486 88.7589 351.506C99.7661 350.417 109.833 341.908 114.315 330.094C118.829 341.818 128.47 350.276 139.871 351.506Z" fill="#44486D"/>
<path fill-rule="evenodd" clip-rule="evenodd" d="M60.3394 182.152C63.6405 217.763 108.161 217.737 111.451 182.152C100.05 180.922 90.4096 172.465 85.8953 160.74C81.3809 172.465 71.7401 180.922 60.3394 182.152ZM83.0316 215.469C82.0369 228.359 73.2814 239.61 62.4273 241.968C47.7584 245.543 33.2207 232.691 31.9199 215.469C43.3206 214.238 52.9614 205.781 57.4757 194.056C61.9573 205.871 72.0244 214.379 83.0316 215.469ZM111.451 248.786C110.139 263.958 99.176 275.849 85.8953 275.849C72.6145 275.849 61.6511 263.958 60.3394 248.786C71.3466 247.697 81.4137 239.188 85.8953 227.374C90.3768 239.188 100.444 247.697 111.451 248.786ZM139.871 215.469C138.559 231.589 125.978 244.005 111.976 242.404C100.039 241.34 89.8083 229.449 88.7589 215.469C99.7661 214.379 109.833 205.871 114.315 194.056C118.829 205.781 128.47 214.238 139.871 215.469Z" fill="#44486D"/>
<path fill-rule="evenodd" clip-rule="evenodd" d="M2.93514 383.966C6.23619 419.576 50.7567 419.55 54.0468 383.966C42.6461 382.736 33.0053 374.279 28.491 362.554C23.9766 374.279 14.3358 382.736 2.93514 383.966ZM25.6273 417.282C24.6326 430.173 15.8771 441.424 5.02302 443.781C-9.64589 447.356 -24.1836 434.504 -25.4844 417.282C-14.0837 416.052 -4.44291 407.595 0.0714417 395.87C4.553 407.684 14.6201 416.193 25.6273 417.282ZM54.0468 450.599C52.7351 465.771 41.7717 477.662 28.491 477.662C15.2102 477.662 4.24682 465.771 2.93514 450.599C13.9423 449.51 24.0094 441.002 28.491 429.187C32.9725 441.002 43.0396 449.51 54.0468 450.599ZM82.4663 417.282C81.1546 433.402 68.5735 445.819 54.5713 444.217C42.6351 443.154 32.404 431.262 31.3547 417.282C42.3618 416.193 52.4289 407.684 56.9105 395.87C61.4248 407.595 71.0656 416.052 82.4663 417.282Z" fill="#44486D"/>
<path fill-rule="evenodd" clip-rule="evenodd" d="M-53.1938 452.732C-49.8927 488.342 -5.37225 488.316 -2.08213 452.732C-13.4828 451.501 -23.1236 443.044 -27.6379 431.319C-32.1523 443.044 -41.7931 451.501 -53.1938 452.732ZM-30.5016 486.048C-31.4963 498.939 -40.2518 510.189 -51.1059 512.547C-65.7748 516.122 -80.3125 503.27 -81.6133 486.048C-70.2126 484.818 -60.5718 476.36 -56.0575 464.635C-51.5759 476.45 -41.5088 484.958 -30.5016 486.048ZM-2.08213 519.365C-3.39381 534.537 -14.3572 546.428 -27.6379 546.428C-40.9187 546.428 -51.8821 534.537 -53.1938 519.365C-42.1866 518.276 -32.1195 509.767 -27.6379 497.953C-23.1564 509.767 -13.0893 518.276 -2.08213 519.365ZM26.3374 486.048C25.0257 502.168 12.4445 514.584 -1.55759 512.983C-13.4938 511.919 -23.7249 500.028 -24.7743 486.048C-13.7671 484.958 -3.7 476.45 0.781563 464.635C5.29591 476.36 14.9367 484.818 26.3374 486.048Z" fill="#44486D"/>
<path fill-rule="evenodd" clip-rule="evenodd" d="M-53.1938 316.694C-49.8927 352.305 -5.37225 352.279 -2.08213 316.694C-13.4828 315.464 -23.1236 307.007 -27.6379 295.282C-32.1523 307.007 -41.7931 315.464 -53.1938 316.694ZM-30.5016 350.011C-31.4963 362.901 -40.2518 374.152 -51.1059 376.51C-65.7748 380.085 -80.3125 367.233 -81.6133 350.011C-70.2126 348.78 -60.5718 340.323 -56.0575 328.598C-51.5759 340.413 -41.5088 348.921 -30.5016 350.011ZM-2.08213 383.328C-3.39381 398.5 -14.3572 410.391 -27.6379 410.391C-40.9187 410.391 -51.8821 398.5 -53.1938 383.328C-42.1866 382.239 -32.1195 373.73 -27.6379 361.916C-23.1564 373.73 -13.0893 382.239 -2.08213 383.328ZM26.3374 350.011C25.0257 366.131 12.4445 378.547 -1.55759 376.946C-13.4938 375.882 -23.7249 363.991 -24.7743 350.011C-13.7671 348.921 -3.7 340.413 0.781563 328.598C5.29591 340.323 14.9367 348.78 26.3374 350.011Z" fill="#44486D"/>
<path fill-rule="evenodd" clip-rule="evenodd" d="M2.93514 113.387C6.23619 148.997 50.7567 148.971 54.0468 113.387C42.6461 112.157 33.0053 103.699 28.491 91.9746C23.9766 103.699 14.3358 112.157 2.93514 113.387ZM25.6273 146.703C24.6326 159.594 15.8771 170.845 5.02302 173.202C-9.64589 176.777 -24.1836 163.925 -25.4844 146.703C-14.0837 145.473 -4.44291 137.016 0.0714417 125.291C4.553 137.105 14.6201 145.614 25.6273 146.703ZM54.0468 180.02C52.7351 195.192 41.7717 207.083 28.491 207.083C15.2102 207.083 4.24682 195.192 2.93514 180.02C13.9423 178.931 24.0094 170.423 28.491 158.608C32.9725 170.423 43.0396 178.931 54.0468 180.02ZM82.4663 146.703C81.1546 162.823 68.5735 175.24 54.5713 173.638C42.6351 172.574 32.404 160.683 31.3547 146.703C42.3618 145.614 52.4289 137.105 56.9105 125.291C61.4248 137.016 71.0656 145.473 82.4663 146.703Z" fill="#44486D"/>
<path fill-rule="evenodd" clip-rule="evenodd" d="M-53.1938 182.152C-49.8927 217.763 -5.37225 217.737 -2.08213 182.152C-13.4828 180.922 -23.1236 172.465 -27.6379 160.74C-32.1523 172.465 -41.7931 180.922 -53.1938 182.152ZM-30.5016 215.469C-31.4963 228.359 -40.2518 239.61 -51.1059 241.968C-65.7748 245.543 -80.3125 232.691 -81.6133 215.469C-70.2126 214.238 -60.5718 205.781 -56.0575 194.056C-51.5759 205.871 -41.5088 214.379 -30.5016 215.469ZM-2.08213 248.786C-3.39381 263.958 -14.3572 275.849 -27.6379 275.849C-40.9187 275.849 -51.8821 263.958 -53.1938 248.786C-42.1866 247.697 -32.1195 239.188 -27.6379 227.374C-23.1564 239.188 -13.0893 247.697 -2.08213 248.786ZM26.3374 215.469C25.0257 231.589 12.4445 244.005 -1.55759 242.404C-13.4938 241.34 -23.7249 229.449 -24.7743 215.469C-13.7671 214.379 -3.7 205.871 0.781563 194.056C5.29591 205.781 14.9367 214.238 26.3374 215.469Z" fill="#44486D"/>
<path fill-rule="evenodd" clip-rule="evenodd" d="M-53.1938 46.1153C-49.8927 81.7254 -5.37225 81.6998 -2.08213 46.1153C-13.4828 44.8852 -23.1236 36.4279 -27.6379 24.7031C-32.1523 36.4279 -41.7931 44.8852 -53.1938 46.1153ZM-30.5016 79.4315C-31.4963 92.3224 -40.2518 103.573 -51.1059 105.931C-65.7748 109.506 -80.3125 96.6535 -81.6133 79.4315C-70.2126 78.2013 -60.5718 69.7441 -56.0575 58.0193C-51.5759 69.8338 -41.5088 78.3423 -30.5016 79.4315ZM-2.08213 112.749C-3.39381 127.921 -14.3572 139.812 -27.6379 139.812C-40.9187 139.812 -51.8821 127.921 -53.1938 112.749C-42.1866 111.66 -32.1195 103.151 -27.6379 91.3365C-23.1564 103.151 -13.0893 111.66 -2.08213 112.749ZM26.3374 79.4315C25.0257 95.5515 12.4445 107.968 -1.55759 106.366C-13.4938 105.303 -23.7249 93.4115 -24.7743 79.4315C-13.7671 78.3423 -3.7 69.8338 0.781563 58.0193C5.29591 69.7441 14.9367 78.2013 26.3374 79.4315Z" fill="#44486D"/>
<path fill-rule="evenodd" clip-rule="evenodd" d="M231.211 -21.2792C234.512 14.3309 279.032 14.3053 282.322 -21.2792C270.922 -22.5094 261.281 -30.9666 256.766 -42.6914C252.252 -30.9666 242.611 -22.5094 231.211 -21.2792ZM253.903 12.0369C252.908 24.9278 244.153 36.1785 233.298 38.5363C218.63 42.1114 204.092 29.2589 202.791 12.0369C214.192 10.8068 223.832 2.34955 228.347 -9.37525C232.828 2.43925 242.896 10.9477 253.903 12.0369ZM282.322 45.3542C281.01 60.526 270.047 72.4174 256.766 72.4174C243.486 72.4174 232.522 60.526 231.211 45.3542C242.218 44.265 252.285 35.7565 256.766 23.942C261.248 35.7565 271.315 44.265 282.322 45.3542ZM310.742 12.0369C309.43 28.1569 296.849 40.5737 282.847 38.972C270.91 37.9084 260.679 26.017 259.63 12.0369C270.637 10.9477 280.704 2.43925 285.186 -9.37525C289.7 2.34956 299.341 10.8068 310.742 12.0369Z" fill="#44486D"/>
<path fill-rule="evenodd" clip-rule="evenodd" d="M343.468 -21.2792C346.769 14.3309 391.29 14.3053 394.58 -21.2792C383.179 -22.5094 373.539 -30.9666 369.024 -42.6914C364.51 -30.9666 354.869 -22.5094 343.468 -21.2792ZM366.16 12.0369C365.166 24.9278 356.41 36.1785 345.556 38.5363C330.887 42.1114 316.35 29.2589 315.049 12.0369C326.449 10.8068 336.09 2.34955 340.605 -9.37525C345.086 2.43925 355.153 10.9477 366.16 12.0369ZM394.58 45.3542C393.268 60.526 382.305 72.4174 369.024 72.4174C355.743 72.4174 344.78 60.526 343.468 45.3542C354.475 44.265 364.543 35.7565 369.024 23.942C373.506 35.7565 383.573 44.265 394.58 45.3542ZM422.999 12.0369C421.688 28.1569 409.107 40.5737 395.105 38.972C383.168 37.9084 372.937 26.017 371.888 12.0369C382.895 10.9477 392.962 2.43925 397.444 -9.37525C401.958 2.34956 411.599 10.8068 422.999 12.0369Z" fill="#44486D"/>
<path fill-rule="evenodd" clip-rule="evenodd" d="M287.339 47.4864C290.64 83.0965 335.161 83.0709 338.451 47.4864C327.05 46.2563 317.41 37.799 312.895 26.0742C308.381 37.799 298.74 46.2563 287.339 47.4864ZM310.032 80.8026C309.037 93.6935 300.281 104.944 289.427 107.302C274.758 110.877 260.221 98.0246 258.92 80.8026C270.321 79.5724 279.961 71.1152 284.476 59.3904C288.957 71.2049 299.024 79.7134 310.032 80.8026ZM338.451 114.12C337.139 129.292 326.176 141.183 312.895 141.183C299.615 141.183 288.651 129.292 287.339 114.12C298.347 113.031 308.414 104.522 312.895 92.7076C317.377 104.522 327.444 113.031 338.451 114.12ZM366.871 80.8026C365.559 96.9226 352.978 109.339 338.976 107.738C327.039 106.674 316.808 94.7826 315.759 80.8026C326.766 79.7134 336.833 71.2049 341.315 59.3904C345.829 71.1152 355.47 79.5724 366.871 80.8026Z" fill="#44486D"/>
<path fill-rule="evenodd" clip-rule="evenodd" d="M287.339 -88.5507C290.64 -52.9406 335.161 -52.9662 338.451 -88.5507C327.05 -89.7808 317.41 -98.2381 312.895 -109.963C308.381 -98.2381 298.74 -89.7808 287.339 -88.5507ZM310.032 -55.2345C309.037 -42.3437 300.281 -31.093 289.427 -28.7352C274.758 -25.1601 260.221 -38.0125 258.92 -55.2345C270.321 -56.4647 279.961 -64.9219 284.476 -76.6467C288.957 -64.8322 299.024 -56.3237 310.032 -55.2345ZM338.451 -21.9173C337.139 -6.74551 326.176 5.14587 312.895 5.14587C299.615 5.14587 288.651 -6.74551 287.339 -21.9173C298.347 -23.0065 308.414 -31.515 312.895 -43.3295C317.377 -31.515 327.444 -23.0065 338.451 -21.9173ZM366.871 -55.2345C365.559 -39.1145 352.978 -26.6978 338.976 -28.2995C327.039 -29.3631 316.808 -41.2545 315.759 -55.2345C326.766 -56.3237 336.833 -64.8322 341.315 -76.6467C345.829 -64.9219 355.47 -56.4647 366.871 -55.2345Z" fill="#44486D"/>
<path fill-rule="evenodd" clip-rule="evenodd" d="M117.677 113.263C120.978 148.873 165.499 148.847 168.789 113.263C157.388 112.033 147.747 103.575 143.233 91.8506C138.719 103.575 129.078 112.033 117.677 113.263ZM140.369 146.579C139.375 159.47 130.619 170.721 119.765 173.078C105.096 176.653 90.5586 163.801 89.2578 146.579C100.658 145.349 110.299 136.892 114.814 125.167C119.295 136.981 129.362 145.49 140.369 146.579ZM168.789 179.896C167.477 195.068 156.514 206.959 143.233 206.959C129.952 206.959 118.989 195.068 117.677 179.896C128.684 178.807 138.752 170.299 143.233 158.484C147.715 170.299 157.782 178.807 168.789 179.896ZM197.208 146.579C195.897 162.699 183.316 175.116 169.314 173.514C157.377 172.45 147.146 160.559 146.097 146.579C157.104 145.49 167.171 136.981 171.653 125.167C176.167 136.892 185.808 145.349 197.208 146.579Z" fill="#44486D"/>
<path fill-rule="evenodd" clip-rule="evenodd" d="M229.935 113.263C233.236 148.873 277.757 148.847 281.047 113.263C269.646 112.033 260.005 103.575 255.491 91.8506C250.977 103.575 241.336 112.033 229.935 113.263ZM252.627 146.579C251.633 159.47 242.877 170.721 232.023 173.078C217.354 176.653 202.816 163.801 201.516 146.579C212.916 145.349 222.557 136.892 227.071 125.167C231.553 136.981 241.62 145.49 252.627 146.579ZM281.047 179.896C279.735 195.068 268.772 206.959 255.491 206.959C242.21 206.959 231.247 195.068 229.935 179.896C240.942 178.807 251.009 170.299 255.491 158.484C259.973 170.299 270.04 178.807 281.047 179.896ZM309.466 146.579C308.155 162.699 295.573 175.116 281.571 173.514C269.635 172.45 259.404 160.559 258.355 146.579C269.362 145.49 279.429 136.981 283.91 125.167C288.425 136.892 298.066 145.349 309.466 146.579Z" fill="#44486D"/>
<path fill-rule="evenodd" clip-rule="evenodd" d="M173.806 182.028C177.107 217.639 221.628 217.613 224.918 182.028C213.517 180.798 203.876 172.341 199.362 160.616C194.848 172.341 185.207 180.798 173.806 182.028ZM196.498 215.345C195.504 228.235 186.748 239.486 175.894 241.844C161.225 245.419 146.687 232.567 145.387 215.345C156.787 214.114 166.428 205.657 170.943 193.932C175.424 205.747 185.491 214.255 196.498 215.345ZM224.918 248.662C223.606 263.834 212.643 275.725 199.362 275.725C186.081 275.725 175.118 263.834 173.806 248.662C184.813 247.573 194.881 239.064 199.362 227.25C203.844 239.064 213.911 247.573 224.918 248.662ZM253.337 215.345C252.026 231.465 239.445 243.881 225.442 242.28C213.506 241.216 203.275 229.325 202.226 215.345C213.233 214.255 223.3 205.747 227.782 193.932C232.296 205.657 241.937 214.114 253.337 215.345Z" fill="#44486D"/>
<path fill-rule="evenodd" clip-rule="evenodd" d="M173.806 45.9913C177.107 81.6014 221.628 81.5758 224.918 45.9913C213.517 44.7611 203.876 36.3039 199.362 24.5791C194.848 36.3039 185.207 44.7611 173.806 45.9913ZM196.498 79.3074C195.504 92.1983 186.748 103.449 175.894 105.807C161.225 109.382 146.687 96.5295 145.387 79.3074C156.787 78.0773 166.428 69.6201 170.943 57.8953C175.424 69.7098 185.491 78.2183 196.498 79.3074ZM224.918 112.625C223.606 127.796 212.643 139.688 199.362 139.688C186.081 139.688 175.118 127.796 173.806 112.625C184.813 111.536 194.881 103.027 199.362 91.2125C203.844 103.027 213.911 111.536 224.918 112.625ZM253.337 79.3074C252.026 95.4275 239.445 107.844 225.442 106.242C213.506 105.179 203.275 93.2875 202.226 79.3074C213.233 78.2183 223.3 69.7098 227.782 57.8953C232.296 69.6201 241.937 78.0773 253.337 79.3074Z" fill="#44486D"/>
<path fill-rule="evenodd" clip-rule="evenodd" d="M173.806 -88.5507C177.107 -52.9406 221.628 -52.9662 224.918 -88.5507C213.517 -89.7808 203.876 -98.2381 199.362 -109.963C194.848 -98.2381 185.207 -89.7808 173.806 -88.5507ZM196.498 -55.2346C195.504 -42.3437 186.748 -31.093 175.894 -28.7352C161.225 -25.1601 146.687 -38.0125 145.387 -55.2346C156.787 -56.4647 166.428 -64.9219 170.943 -76.6467C175.424 -64.8322 185.491 -56.3237 196.498 -55.2346ZM224.918 -21.9173C223.606 -6.74551 212.643 5.14587 199.362 5.14587C186.081 5.14587 175.118 -6.74551 173.806 -21.9173C184.813 -23.0065 194.881 -31.515 199.362 -43.3295C203.844 -31.515 213.911 -23.0065 224.918 -21.9173ZM253.337 -55.2345C252.026 -39.1145 239.445 -26.6978 225.442 -28.2995C213.506 -29.3631 203.275 -41.2545 202.226 -55.2345C213.233 -56.3237 223.3 -64.8322 227.782 -76.6467C232.296 -64.9219 241.937 -56.4647 253.337 -55.2345Z" fill="#44486D"/>
<path fill-rule="evenodd" clip-rule="evenodd" d="M5.41952 -21.2792C8.72057 14.3309 53.241 14.3053 56.5312 -21.2792C45.1305 -22.5094 35.4897 -30.9666 30.9753 -42.6914C26.461 -30.9666 16.8202 -22.5094 5.41952 -21.2792ZM28.1116 12.0369C27.1169 24.9278 18.3615 36.1785 7.50739 38.5363C-7.16151 42.1114 -21.6993 29.2589 -23 12.0369C-11.5993 10.8068 -1.95853 2.34955 2.55582 -9.37525C7.03738 2.43925 17.1045 10.9477 28.1116 12.0369ZM56.5312 45.3542C55.2195 60.526 44.2561 72.4174 30.9753 72.4174C17.6946 72.4174 6.73119 60.526 5.41952 45.3542C16.4267 44.265 26.4938 35.7565 30.9753 23.942C35.4569 35.7565 45.524 44.265 56.5312 45.3542ZM84.9507 12.0369C83.639 28.1569 71.0578 40.5737 57.0557 38.972C45.1194 37.9084 34.8884 26.017 33.839 12.0369C44.8462 10.9477 54.9133 2.43925 59.3948 -9.37525C63.9092 2.34956 73.55 10.8068 84.9507 12.0369Z" fill="#44486D"/>
<path fill-rule="evenodd" clip-rule="evenodd" d="M117.677 -21.2792C120.978 14.3309 165.499 14.3053 168.789 -21.2792C157.388 -22.5094 147.748 -30.9666 143.233 -42.6914C138.719 -30.9666 129.078 -22.5094 117.677 -21.2792ZM140.369 12.0369C139.375 24.9278 130.619 36.1785 119.765 38.5363C105.096 42.1114 90.5586 29.2589 89.2578 12.0369C100.658 10.8068 110.299 2.34955 114.814 -9.37525C119.295 2.43925 129.362 10.9477 140.369 12.0369ZM168.789 45.3542C167.477 60.526 156.514 72.4174 143.233 72.4174C129.952 72.4174 118.989 60.526 117.677 45.3542C128.684 44.265 138.752 35.7565 143.233 23.942C147.715 35.7565 157.782 44.265 168.789 45.3542ZM197.208 12.0369C195.897 28.1569 183.316 40.5737 169.314 38.972C157.377 37.9084 147.146 26.017 146.097 12.0369C157.104 10.9477 167.171 2.43925 171.653 -9.37525C176.167 2.34956 185.808 10.8068 197.208 12.0369Z" fill="#44486D"/>
<path fill-rule="evenodd" clip-rule="evenodd" d="M61.5484 47.4864C64.8495 83.0965 109.37 83.0709 112.66 47.4864C101.259 46.2563 91.6186 37.799 87.1042 26.0742C82.5899 37.799 72.9491 46.2563 61.5484 47.4864ZM84.2405 80.8026C83.2459 93.6935 74.4904 104.944 63.6363 107.302C48.9674 110.877 34.4297 98.0246 33.1289 80.8026C44.5296 79.5724 54.1704 71.1152 58.6847 59.3904C63.1663 71.2049 73.2334 79.7134 84.2405 80.8026ZM112.66 114.12C111.348 129.292 100.385 141.183 87.1042 141.183C73.8235 141.183 62.8601 129.292 61.5484 114.12C72.5556 113.031 82.6227 104.522 87.1042 92.7076C91.5858 104.522 101.653 113.031 112.66 114.12ZM141.08 80.8026C139.768 96.9226 127.187 109.339 113.185 107.738C101.248 106.674 91.0173 94.7826 89.9679 80.8026C100.975 79.7134 111.042 71.2049 115.524 59.3904C120.038 71.1152 129.679 79.5724 141.08 80.8026Z" fill="#44486D"/>
<path fill-rule="evenodd" clip-rule="evenodd" d="M61.5484 -88.5507C64.8495 -52.9406 109.37 -52.9662 112.66 -88.5507C101.259 -89.7808 91.6186 -98.2381 87.1042 -109.963C82.5899 -98.2381 72.9491 -89.7808 61.5484 -88.5507ZM84.2405 -55.2345C83.2459 -42.3437 74.4904 -31.093 63.6363 -28.7352C48.9674 -25.1601 34.4297 -38.0125 33.1289 -55.2345C44.5296 -56.4647 54.1704 -64.9219 58.6847 -76.6467C63.1663 -64.8322 73.2334 -56.3237 84.2405 -55.2345ZM112.66 -21.9173C111.348 -6.74551 100.385 5.14587 87.1042 5.14587C73.8235 5.14587 62.8601 -6.74551 61.5484 -21.9173C72.5556 -23.0065 82.6227 -31.515 87.1042 -43.3295C91.5858 -31.515 101.653 -23.0065 112.66 -21.9173ZM141.08 -55.2345C139.768 -39.1145 127.187 -26.6978 113.185 -28.2995C101.248 -29.3631 91.0173 -41.2545 89.9679 -55.2345C100.975 -56.3237 111.042 -64.8322 115.524 -76.6467C120.038 -64.9219 129.679 -56.4647 141.08 -55.2345Z" fill="#44486D"/>
</g>
</g>
<defs>
<radialGradient id="paint0_radial" cx="0" cy="0" r="1" gradientUnits="userSpaceOnUse" gradientTransform="translate(82 99.5) rotate(50.4774) scale(311.133 251.048)">
<stop/>
<stop offset="1" stop-opacity="0"/>
</radialGradient>
</defs>
</svg>
